# xmcd CD database file
# Copyright (C) 1993-1998 Ti Kan
# 
# Track frame offsets:
#     111199
#     115179
#     134171
#     148826
#     152254
#     177434
#     206149
#     208814
#     231449
#     247694
#     253779
#     279899
#     282344
#     304676
#     323551
# 
# Disc length: 4345 seconds
# 
# Revision: 1
# Processed by: cddbd v1.4b41PL1 Copyright (c) Steve Scherf et al.
# Submitted via: DiscPlay 4.0.4
# 
DISCID=ed0b2f0f
DTITLE=The Dexters - Live at The Orbit Room- Hip to the Tip
DYEAR=1900
DGENRE=
TTITLE0=Intro:Hip to the Tip
TTITLE1=Green Onions
TTITLE2=Peter Gunn Theme
TTITLE3=Orbituary
TTITLE4=Born Under a Bad Sign
TTITLE5=Drown In My Own Tears
TTITLE6=Dexterity
TTITLE7=Melancholy Serenade
TTITLE8=All About My Girl
TTITLE9=1967 Again
TTITLE10=T-Bone Steak
TTITLE11=Canzona di Sam
TTITLE12=Night Train
TTITLE13=Encore: The Horse/Hip to the Tip
TTITLE14=Last Call
EXTD=
EXTT0=
EXTT1=
EXTT2=
EXTT3=
EXTT4=
EXTT5=
EXTT6=
EXTT7=
EXTT8=
EXTT9=
EXTT10=
EXTT11=
EXTT12=
EXTT13=
EXTT14=
PLAYORDER=
